<svg width="80" height="80" viewBox="0 0 80 80" fill="none" xmlns="http://www.w3.org/2000/svg">
<g clip-path="url(#clip0_25833_204865)">
<path fill-rule="evenodd" clip-rule="evenodd" d="M70.7884 19.6237L70.7883 19.6237L42.4736 3.28386C41.0629 2.46981 39.327 2.46046 37.9078 3.25922L37.9077 3.25925L9.18015 19.4263C9.18014 19.4263 9.18013 19.4263 9.18012 19.4263C7.71437 20.2513 6.81545 21.8082 6.83359 23.4881L7.18955 56.4386L4.52304 56.4674L4.16708 23.5169C4.13842 20.8631 5.55853 18.4046 7.87228 17.1024L36.5999 0.935323C38.8402 -0.325521 41.5798 -0.310688 43.8064 0.974151L72.1212 17.314C74.3997 18.6287 75.7899 21.0704 75.7579 23.6997L75.3621 56.2161C75.3308 58.7505 73.9821 61.086 71.8018 62.3799L43.8261 78.981C41.5641 80.3233 38.7532 80.3407 36.4749 79.026L8.15999 62.686C5.9334 61.4012 4.55076 59.037 4.52304 56.4674L7.18955 56.4387C7.2071 58.0653 8.08236 59.5624 9.49274 60.3762L9.49287 60.3763L37.8077 76.7163C39.2508 77.5491 41.0319 77.5382 42.4653 76.6877C42.4653 76.6877 42.4653 76.6877 42.4653 76.6877L70.4409 60.0866C71.8216 59.2672 72.6757 57.7884 72.6957 56.1837C72.6957 56.1835 72.6957 56.1834 72.6957 56.1832L73.0914 23.6672C73.1117 22.0026 72.2316 20.4564 70.7884 19.6237Z" fill="url(#paint0_linear_25833_204865)"/>
<path d="M64.0807 23.5317L42.8447 11.6853C41.1747 10.7538 39.12 10.743 37.4398 11.6571L15.8941 23.3783C14.1587 24.3223 13.0937 26.1048 13.1152 28.0288L13.3821 51.9179C13.4029 53.7808 14.4399 55.4949 16.1098 56.4263L37.346 68.2729C39.0547 69.226 41.1629 69.2134 42.8595 68.2402L63.8412 56.2044C65.4764 55.2664 66.488 53.5731 66.5114 51.7357L66.8082 28.1613C66.8322 26.2551 65.7896 24.4848 64.0807 23.5317Z" fill="url(#paint1_linear_25833_204865)"/>
<path d="M40.8101 57.5619C33.0901 57.5619 26.8318 51.0569 26.8318 43.0328C26.8318 36.4592 32.3789 28.4271 36.6625 23.5351C38.6906 21.219 42.5233 19.3857 42.5233 19.3857C42.5233 19.3857 40.5591 28.747 45.8873 32.4649C50.6167 35.7652 54.0969 40.0588 54.0969 43.836C54.0969 51.3995 48.5302 57.5621 40.8103 57.5621L40.8101 57.5619Z" fill="#B13AF0"/>
</g>
<defs>
<linearGradient id="paint0_linear_25833_204865" x1="22.0646" y1="8.5" x2="59.1558" y2="67.3101" gradientUnits="userSpaceOnUse">
<stop stop-color="#B13AF0"/>
<stop offset="1" stop-color="#B13AF0" stop-opacity="0.24"/>
</linearGradient>
<linearGradient id="paint1_linear_25833_204865" x1="13.1448" y1="10.9854" x2="70.6956" y2="64.2813" gradientUnits="userSpaceOnUse">
<stop stop-color="#722A98"/>
<stop offset="1" stop-color="#121214"/>
</linearGradient>
<clipPath id="clip0_25833_204865">
<rect width="80" height="80" fill="white"/>
</clipPath>
</defs>
</svg>
